<?xml version="1.0" standalone="no"?>
<!DOCTYPE svg PUBLIC "-//W3C//DTD SVG 20010904//EN"
 "http://www.w3.org/TR/2001/REC-SVG-20010904/DTD/svg10.dtd">
<svg version="1.0" xmlns="http://www.w3.org/2000/svg"
 width="100.000000pt" height="100.000000pt" viewBox="0 0 1200.000000 1200.000000"
 preserveAspectRatio="xMidYMid meet">

<g transform="translate(0.000000,1200.000000) scale(0.100000,-0.100000)"
fill="#000000" stroke="none">
<path d="M5828 9657 c-76 -45 -138 -85 -138 -90 0 -17 233 -348 240 -340 10
11 211 445 208 448 -26 24 -116 65 -141 64 -21 0 -79 -28 -169 -82z"/>
<path d="M6187 9633 c-27 -45 -217 -468 -215 -478 6 -24 553 -814 559 -807 13
13 449 819 449 828 0 7 -749 452 -779 462 -5 2 -11 -1 -14 -5z"/>
<path d="M4910 9121 l-715 -418 -3 -99 -3 -99 427 -520 c234 -286 436 -530
448 -543 l22 -22 404 865 405 865 22 -24 21 -25 12 30 c10 24 10 33 -5 56
l-18 26 -14 -26 c-7 -15 -15 -27 -17 -27 -2 0 -61 85 -132 190 -71 104 -131
189 -134 189 -3 0 -327 -188 -720 -418z"/>
<path d="M6801 8718 l-234 -431 -19 23 c-20 25 -20 25 -37 -8 -10 -19 -9 -28
5 -49 l17 -26 14 27 c8 16 18 24 23 20 5 -5 207 -299 450 -654 243 -355 447
-651 454 -658 10 -11 44 43 174 284 l162 296 -2 580 -3 580 -383 224 c-211
123 -384 224 -385 224 -1 -1 -107 -195 -236 -432z"/>
<path d="M5915 9052 c-10 -20 -190 -406 -402 -857 -211 -450 -386 -821 -388
-824 -3 -2 -13 7 -24 20 l-19 24 -12 -29 c-11 -29 -11 -29 -29 -10 -10 10
-164 197 -342 414 -178 217 -365 446 -416 508 l-93 113 0 -913 1 -913 196
-113 c107 -63 199 -110 203 -105 4 4 110 227 235 496 125 268 231 487 234 487
3 0 12 -10 20 -22 l13 -22 15 28 c19 35 -10 66 292 -304 133 -162 245 -296
249 -297 8 -2 842 1529 842 1546 0 11 -536 797 -549 806 -4 2 -16 -13 -26 -33z"/>
<path d="M6503 8169 c-16 -30 -200 -367 -408 -749 -207 -382 -384 -706 -393
-719 l-15 -25 -18 23 -18 22 -16 -25 -17 -25 -256 314 c-142 173 -260 314
-263 314 -6 1 -462 -969 -457 -974 8 -8 591 -345 597 -345 3 0 89 153 191 340
101 187 187 340 191 340 4 0 12 -7 19 -15 17 -20 27 -19 35 6 4 11 11 19 15
17 5 -2 171 -201 370 -443 198 -242 366 -439 373 -437 7 2 147 82 313 179
l301 175 192 353 c106 194 198 361 205 371 13 17 14 17 27 -4 17 -27 26 -28
34 -2 3 11 10 20 14 20 5 0 57 -71 116 -157 60 -87 110 -160 111 -162 2 -2 17
2 34 9 l30 12 0 416 c0 228 -2 413 -4 411 -2 -2 -65 -116 -140 -253 -75 -137
-139 -252 -142 -255 -3 -3 -14 5 -23 18 l-19 24 -14 -27 -15 -28 -45 63 c-24
35 -225 327 -446 649 -220 322 -407 593 -415 604 -13 17 -16 15 -44 -35z"/>
<path d="M7317 6518 c-90 -167 -163 -305 -161 -307 8 -8 543 313 537 323 -30
51 -196 286 -202 286 -5 0 -83 -136 -174 -302z"/>
<path d="M5500 6328 c-84 -156 -166 -305 -181 -333 l-28 -50 339 -197 c244
-143 347 -198 370 -198 21 0 85 31 200 98 93 53 168 100 167 105 -4 13 -699
857 -706 857 -4 0 -77 -127 -161 -282z"/>

</g>
</svg>
